<?xml version="1.0" encoding="utf-8"?>
<!-- Generator: Adobe Illustrator 27.7.0, SVG Export Plug-In . SVG Version: 6.00 Build 0)  -->
<svg version="1.1" id="Layer_1" xmlns="http://www.w3.org/2000/svg" xmlns:xlink="http://www.w3.org/1999/xlink" x="0px" y="0px"
	 viewBox="0 0 872 172" style="enable-background:new 0 0 872 172;" xml:space="preserve">
<style type="text/css">
	.st0{fill:#2777AE;}
	.st1{fill:none;stroke:#2777AE;stroke-width:4;stroke-miterlimit:10;}
	.st2{fill:#FFFFFF;}
	.st3{fill-rule:evenodd;clip-rule:evenodd;fill:#747487;}
	.st4{fill-rule:evenodd;clip-rule:evenodd;fill:#2D8CFF;}
</style>
<g>
	<path class="st0" d="M157.7,78.7c3,0,5.4,2.4,5.4,5.4c0,3-2.4,5.4-5.4,5.4c-3,0-5.4-2.4-5.4-5.4C152.3,81,154.6,78.7,157.7,78.7z"
		/>
	<path class="st0" d="M189.6,85.5c-2.8,3.5-6.4,3.9-8.4,3.9c-3.5,0-6.3-0.9-9-3.6c-2.6-2.6-4.2-6.1-4.2-10.6c0-4.4,1.7-7.9,4-10.3
		c2.4-2.4,5.5-3.7,9.3-3.7c2.6,0,5.7,0.7,8.4,4V62h8.6v40.1h-8.6V85.5z M178.8,70.3c-1.2,1.1-2,2.9-2,4.8c0,1.7,0.7,3.7,2.1,5.1
		c1.2,1.2,3,1.8,4.6,1.8c1.8,0,3.6-0.8,4.9-2c1.2-1.3,1.9-3,1.9-4.7c0-1.6-0.7-3.5-2-4.9c-0.8-0.8-2.4-2-4.8-2
		C181.7,68.5,180,69.1,178.8,70.3z"/>
	<path class="st0" d="M221.1,68.8c-1.3-0.8-3-1.5-4.7-1.5c-0.9,0-1.9,0.2-2.4,0.8c-0.3,0.3-0.5,0.8-0.5,1.2c0,0.6,0.4,1,0.8,1.2
		c0.6,0.4,1.5,0.5,2.6,0.9l2.3,0.7c1.5,0.5,3,1.1,4.4,2.3c1.5,1.4,2.1,3,2.1,5.1c0,3.5-1.5,5.8-2.7,7c-2.6,2.6-5.8,3-8.6,3
		c-3.6,0-7.4-0.8-10.9-3.8l3.6-5.8c0.8,0.7,2,1.5,2.9,2c1.2,0.6,2.4,0.8,3.6,0.8c0.5,0,1.9,0,2.7-0.6c0.5-0.4,0.9-1.1,0.9-1.7
		c0-0.5-0.2-1.1-1-1.5c-0.6-0.4-1.4-0.6-2.6-1l-2.1-0.7c-1.5-0.5-3.2-1.3-4.3-2.4c-1.2-1.3-1.9-2.8-1.9-4.8c0-2.6,1-4.7,2.6-6.1
		c2.4-2.2,5.6-2.7,8-2.7c3.9,0,6.7,1,8.8,2.3L221.1,68.8z"/>
	<path class="st0" d="M240.1,85.1L227.4,62h9.9l7.5,14.4l7.3-14.4h9.6l-21.4,40.1h-9.6L240.1,85.1z"/>
	<path class="st0" d="M280.5,68.8c-1.3-0.8-3-1.5-4.7-1.5c-0.9,0-1.9,0.2-2.4,0.8c-0.3,0.3-0.5,0.8-0.5,1.2c0,0.6,0.4,1,0.8,1.2
		c0.6,0.4,1.5,0.5,2.6,0.9l2.3,0.7c1.5,0.5,3,1.1,4.4,2.3c1.5,1.4,2.1,3,2.1,5.1c0,3.5-1.5,5.8-2.7,7c-2.6,2.6-5.8,3-8.6,3
		c-3.6,0-7.4-0.8-10.9-3.8l3.6-5.8c0.8,0.7,2,1.5,2.9,2c1.2,0.6,2.4,0.8,3.6,0.8c0.5,0,1.9,0,2.7-0.6c0.5-0.4,0.9-1.1,0.9-1.7
		c0-0.5-0.2-1.1-1-1.5c-0.6-0.4-1.4-0.6-2.6-1l-2.1-0.7c-1.5-0.5-3.2-1.3-4.3-2.4c-1.2-1.3-1.9-2.8-1.9-4.8c0-2.6,1-4.7,2.6-6.1
		c2.4-2.2,5.6-2.7,8-2.7c3.9,0,6.7,1,8.8,2.3L280.5,68.8z"/>
</g>
<g>
	<path class="st0" d="M151.7,118.5c-0.2-0.5-0.6-0.8-1.2-0.8c-0.5,0-1,0.3-1,1c0,0.6,0.4,0.8,1.4,1.2c1.2,0.5,1.8,0.9,2.1,1.3
		c0.4,0.4,0.4,0.9,0.4,1.4c0,1.8-1.3,2.8-2.9,2.8c-0.3,0-2.2,0-2.9-2.1l1.3-0.5c0.2,0.4,0.6,1.4,1.7,1.4c1,0,1.4-0.7,1.4-1.3
		c0-0.8-0.6-1.1-1.4-1.4c-1-0.4-1.7-0.8-2-1.2c-0.3-0.4-0.4-0.8-0.4-1.2c0-1.5,1-2.3,2.4-2.3c0.4,0,1.6,0.1,2.3,1.5L151.7,118.5z"/>
	<path class="st0" d="M161.8,116.5h1.5v8.4h-1.5v-1.2c-0.5,0.6-1.4,1.4-2.9,1.4c-2.1,0-4.1-1.5-4.1-4.5c0-2.9,1.9-4.4,4.1-4.4
		c1.6,0,2.5,0.9,2.9,1.4V116.5z M156.3,120.7c0,1.8,1,3.2,2.8,3.2c1.8,0,2.8-1.5,2.8-3.1c0-2.2-1.5-3.1-2.8-3.1
		C157.6,117.6,156.3,118.7,156.3,120.7z"/>
	<path class="st0" d="M166,116.5h1.5v0.9c0.5-0.7,1.2-1.1,2.1-1.1c1.5,0,2.1,1.1,2.3,1.4c0.8-1.3,2-1.4,2.5-1.4
		c2.5,0,2.7,2.1,2.7,3.3v5.3h-1.5v-5.1c0-1-0.1-2.2-1.5-2.2c-1.7,0-1.9,1.6-1.9,2.6v4.7h-1.5v-5c0-0.6,0-2.3-1.5-2.3
		c-1.7,0-1.8,1.7-1.8,2.7v4.6H166V116.5z"/>
	<path class="st0" d="M181.3,129.6h-1.5v-13h1.5v1.2c1-1.2,2.3-1.4,2.9-1.4c2.6,0,4.1,2.2,4.1,4.5c0,2.3-1.5,4.4-4,4.4
		c-1.4,0-2.3-0.6-2.9-1.4V129.6z M186.7,120.8c0-2.1-1.4-3.2-2.8-3.2s-2.8,1.1-2.8,3.1c0,1.7,1.1,3.1,2.8,3.1
		C185.7,123.9,186.7,122.4,186.7,120.8z"/>
	<path class="st0" d="M191.9,110.2v14.8h-1.5v-14.8H191.9z"/>
	<path class="st0" d="M202.1,122.8c-0.2,0.5-0.6,1-1,1.4c-0.8,0.7-1.7,1-2.8,1c-2,0-4.1-1.3-4.1-4.4c0-2.5,1.5-4.5,4.1-4.5
		c1.6,0,2.7,0.8,3.2,1.5c0.5,0.7,0.8,2,0.8,3.2h-6.5c0,1.7,1.2,2.9,2.7,2.9c0.7,0,1.2-0.2,1.7-0.6c0.4-0.3,0.7-0.7,0.9-1.2
		L202.1,122.8z M200.7,119.8c-0.2-1.3-1.2-2.2-2.5-2.2c-1.2,0-2.2,0.9-2.5,2.2H200.7z"/>
	<path class="st0" d="M215.5,110.2h1.5v14.8h-1.5v-1.2c-0.5,0.6-1.4,1.4-2.9,1.4c-2.1,0-4.1-1.5-4.1-4.5c0-2.9,1.9-4.4,4.1-4.4
		c1.6,0,2.5,0.9,2.9,1.4V110.2z M210.1,120.7c0,1.8,1,3.2,2.8,3.2c1.8,0,2.8-1.5,2.8-3.1c0-2.2-1.5-3.1-2.8-3.1
		C211.4,117.6,210.1,118.7,210.1,120.7z"/>
	<path class="st0" d="M227.2,122.8c-0.2,0.5-0.6,1-1,1.4c-0.8,0.7-1.7,1-2.8,1c-2,0-4.1-1.3-4.1-4.4c0-2.5,1.5-4.5,4.1-4.5
		c1.6,0,2.7,0.8,3.2,1.5c0.5,0.7,0.8,2,0.8,3.2h-6.5c0,1.7,1.2,2.9,2.7,2.9c0.7,0,1.2-0.2,1.7-0.6c0.4-0.3,0.7-0.7,0.9-1.2
		L227.2,122.8z M225.8,119.8c-0.2-1.3-1.2-2.2-2.5-2.2c-1.2,0-2.2,0.9-2.5,2.2H225.8z"/>
	<path class="st0" d="M232.9,118.5c-0.2-0.5-0.6-0.8-1.2-0.8c-0.5,0-1,0.3-1,1c0,0.6,0.4,0.8,1.4,1.2c1.2,0.5,1.8,0.9,2.1,1.3
		c0.4,0.4,0.4,0.9,0.4,1.4c0,1.8-1.3,2.8-2.9,2.8c-0.3,0-2.2,0-2.9-2.1l1.3-0.5c0.2,0.4,0.6,1.4,1.7,1.4c1,0,1.4-0.7,1.4-1.3
		c0-0.8-0.6-1.1-1.4-1.4c-1-0.4-1.7-0.8-2-1.2c-0.3-0.4-0.4-0.8-0.4-1.2c0-1.5,1-2.3,2.4-2.3c0.4,0,1.6,0.1,2.3,1.5L232.9,118.5z"/>
	<path class="st0" d="M237.3,112.3c0.6,0,1,0.5,1,1s-0.5,1-1,1c-0.6,0-1-0.5-1-1S236.8,112.3,237.3,112.3z M238.1,116.5v8.4h-1.5
		v-8.4H238.1z"/>
	<path class="st0" d="M247.2,116.5h1.5v8.2c0,0.9,0,2.2-0.8,3.3c-0.6,0.8-1.8,1.6-3.4,1.6c-1.4,0-2.4-0.6-3-1.1
		c-0.6-0.6-1.1-1.5-1.1-2.7h1.4c0,0.7,0.3,1.3,0.6,1.7c0.6,0.7,1.4,0.8,2,0.8c1,0,1.7-0.4,2.2-1.2c0.4-0.7,0.5-1.4,0.5-2.1v-1.2
		c-0.5,0.6-1.4,1.4-2.9,1.4c-1.2,0-2.2-0.5-2.9-1.1c-0.6-0.6-1.2-1.6-1.2-3.3c0-1.6,0.6-2.7,1.2-3.3c0.7-0.7,1.7-1.1,2.9-1.1
		c1.2,0,2.2,0.5,2.9,1.4V116.5z M242.6,118.4c-0.7,0.7-0.8,1.6-0.8,2.3c0,0.7,0.1,1.7,1,2.5c0.5,0.4,1,0.7,1.8,0.7
		c0.8,0,1.4-0.2,1.8-0.7c0.6-0.5,1-1.4,1-2.4s-0.4-1.9-0.9-2.4c-0.5-0.5-1.2-0.7-1.9-0.7C243.6,117.6,243,118,242.6,118.4z"/>
	<path class="st0" d="M251.4,116.5h1.5v1c0.3-0.3,1-1.2,2.4-1.2c1,0,1.9,0.4,2.4,1.2c0.4,0.6,0.5,1.3,0.5,2.2v5.2h-1.5v-5.2
		c0-0.5,0-1.1-0.4-1.5c-0.3-0.4-0.7-0.6-1.4-0.6c-0.5,0-1.1,0.1-1.5,0.6c-0.6,0.7-0.6,1.7-0.6,2.3v4.4h-1.5V116.5z"/>
	<path class="st0" d="M267.2,117.8v7.1h-1.5v-7.1h-0.8v-1.3h0.8v-3.2c0-0.9,0.1-1.6,0.5-2.2c0.4-0.6,1.2-1.2,2.8-1.2
		c0.7,0,2.1,0.1,2.8,1.2c0.5,0.7,0.5,1.6,0.5,2.2v0.3h-1.5v-0.3c0-0.3,0-0.9-0.3-1.3c-0.2-0.4-0.7-0.6-1.5-0.6
		c-0.8,0-1.3,0.3-1.5,0.6c-0.3,0.4-0.3,0.9-0.3,1.3v3.2h2.1v1.3H267.2z M272.2,116.5v8.4h-1.5v-8.4H272.2z"/>
	<path class="st0" d="M276.4,110.2v14.8H275v-14.8H276.4z"/>
	<path class="st0" d="M286.6,122.8c-0.2,0.5-0.6,1-1,1.4c-0.8,0.7-1.7,1-2.8,1c-2,0-4.1-1.3-4.1-4.4c0-2.5,1.5-4.5,4.1-4.5
		c1.6,0,2.7,0.8,3.2,1.5c0.5,0.7,0.8,2,0.8,3.2h-6.5c0,1.7,1.2,2.9,2.7,2.9c0.7,0,1.2-0.2,1.7-0.6c0.4-0.3,0.7-0.7,0.9-1.2
		L286.6,122.8z M285.2,119.8c-0.2-1.3-1.2-2.2-2.5-2.2c-1.2,0-2.2,0.9-2.5,2.2H285.2z"/>
</g>
<line class="st1" x1="332.1" y1="41" x2="332.1" y2="135.9"/>
<g>
	<path class="st0" d="M95,60.7h25.8L87,26.9v25.8C87,57.1,90.6,60.7,95,60.7z"/>
	<path class="st0" d="M95.3,63.6c-7.7,0-11.9-4.4-11.9-12V27H33.2c-5,0-8.4,4-8.4,8.9v100.4c0,4.9,3.4,8.8,8.4,8.8h78.1
		c5,0,9.6-3.9,9.6-8.8V63.6H95.3z"/>
</g>
<g>
	<rect x="74.9" y="107" class="st2" width="8.7" height="16.6"/>
	<path class="st2" d="M84.5,70.2H53.3c-14.3,0-20.2,5.2-20.2,17.8v12.4c0,12.6,5.9,17.8,20.2,17.8h17.3v-6.7H54
		c-8.3,0-11.9-2.6-11.9-8.7v-17c0-6.1,3.5-8.7,11.9-8.7h29.7c8.3,0,11.9,2.6,11.9,8.7v17c0,4.8-2.2,7.4-7,8.3l-0.7,0.1v6.9l0.9-0.1
		c5.8-0.5,9.8-2.2,12.3-5.2c2.4-2.8,3.5-6.7,3.5-12.4V88C104.7,75.4,98.8,70.2,84.5,70.2"/>
</g>
<g>
	<path class="st3" d="M620.5,61.9c-10.7,0-16.5,6.1-18,10.5v-9.3l-2.5-1.2v49.7l2.5-1.2V81.4c0-8.3,6.4-17.1,18-17.1
		c0.3,0,0.5,0,0.6,0l1.2-2.5H620.5z"/>
	<path class="st3" d="M767.6,61.9c-6.7,0-12.5,4.4-14.9,10.7c-2.4-6.3-8.2-10.7-14.9-10.7c-5.7,0-10.8,3.2-13.7,8.1v-6.9l-2.5-1.2
		v49.7c2.5,0,2.5-1.2,2.5-1.2v-31c0-8.2,6.1-14.9,13.7-14.9c7.5,0,13.7,6.7,13.7,14.9v31l2.5,1.2V79.2c0-8.2,6.1-14.9,13.7-14.9
		c7.5,0,13.7,6.7,13.7,14.9v31l2.5,1.2V79.2C783.8,69.7,776.5,61.9,767.6,61.9z"/>
	<path class="st3" d="M644.7,61.9c-12.3,0-22.3,11.1-22.3,24.8c0,13.7,10,24.8,22.3,24.8c12.3,0,22.3-11.1,22.3-24.8
		C667.1,73,657.1,61.9,644.7,61.9z M644.7,109c-11,0-19.9-10-19.9-22.3s8.9-22.3,19.9-22.3s19.9,10,19.9,22.3S655.7,109,644.7,109z"
		/>
	<path class="st3" d="M694.4,61.9C682,61.9,672,73,672,86.7c0,13.7,10,24.8,22.3,24.8s22.3-11.1,22.3-24.8
		C716.7,73,706.7,61.9,694.4,61.9z M694.4,109c-11,0-19.9-10-19.9-22.3s8.9-22.3,19.9-22.3c11,0,19.9,10,19.9,22.3
		S705.3,109,694.4,109z"/>
	<path class="st3" d="M815.8,88.6l-18.6-6.3c-3.5-1.3-6-4.7-6-8.7c0-5.1,4.2-9.3,9.3-9.3h21.8l1.1-2.5h-23
		c-6.5,0-11.8,5.3-11.8,11.8c0,4.5,2.5,8.4,6.2,10.4l19.4,6.8c3.9,1.1,6.7,4.7,6.7,8.9c0,5.1-4.2,9.3-9.3,9.3h-21.8l-1.1,2.5h23
		c6.5,0,11.8-5.3,11.8-11.8C823.5,94.7,820.3,90.3,815.8,88.6z"/>
</g>
<path class="st4" d="M381.5,111.4l2.5,0.1h37.2l-0.1-2.5c-0.3-4.1-3.2-7.1-7.3-7.3l-2.5-0.1H389l29.8-29.8l-0.1-2.5
	c-0.2-4.1-3.2-7.1-7.3-7.3l-2.5-0.1l-37.2,0l0.1,2.5c0.3,4,3.3,7.1,7.3,7.3l2.5,0.1h22.3l-29.8,29.8l0.1,2.5
	C374.5,108.2,377.4,111.1,381.5,111.4z"/>
<path class="st4" d="M551.5,76.8c0.9,1.5,1.1,3.1,1.2,5l0.1,2.5v17.4l0.1,2.5c0.2,4.1,3.2,7.1,7.3,7.3l2.5,0.1V84.2l0.1-2.5
	c0.1-1.8,0.4-3.5,1.2-5c1.7-2.9,4.9-4.9,8.6-4.9c3.7,0,6.9,2,8.6,5c0.8,1.5,1.1,3.1,1.2,5l0.1,2.5v17.4l0.1,2.5
	c0.3,4.1,3.2,7.1,7.3,7.3l2.5,0.1V84.2v-2.5c0-11-8.9-19.9-19.9-19.9c-5.9,0-11.3,2.6-14.9,6.7c-3.6-4.1-9-6.7-14.9-6.7
	c-4.1,0-8,1.3-11.1,3.4c-1.9-2.1-6.3-3.4-8.7-3.4v49.7l2.5-0.1c4.1-0.3,7.2-3.2,7.3-7.3l0.1-2.5V84.2l0.1-2.5c0.1-1.9,0.4-3.5,1.2-5
	c1.7-3,4.9-4.9,8.6-4.9C546.6,71.8,549.8,73.8,551.5,76.8z"/>
<path class="st4" d="M461.2,69.1c-4.8-4.8-11.2-7.3-17.5-7.3h0c-6.3,0-12.7,2.4-17.5,7.3c-9.7,9.7-9.7,25.4,0,35.1
	c9.7,9.7,25.4,9.7,35.1,0C470.9,94.6,470.9,78.8,461.2,69.1z M454.1,97.2c-5.8,5.8-15.2,5.8-21.1,0c-5.8-5.8-5.8-15.2,0-21.1
	c5.8-5.8,15.2-5.8,21.1,0C460,82,460,91.4,454.1,97.2z"/>
<path class="st4" d="M513.3,69.1c-4.8-4.8-11.2-7.3-17.6-7.3c-6.3,0-12.7,2.4-17.5,7.3c-9.7,9.7-9.7,25.4,0,35.1
	c9.7,9.7,25.4,9.7,35.1,0C523,94.6,523,78.8,513.3,69.1z M506.3,97.2c-5.8,5.8-15.2,5.8-21.1,0c-5.8-5.8-5.8-15.2,0-21.1
	c5.8-5.8,15.2-5.8,21.1,0C512.1,82,512.1,91.4,506.3,97.2z"/>
<g>
</g>
<g>
</g>
<g>
</g>
<g>
</g>
<g>
</g>
<g>
</g>
</svg>
